<svg width="26" height="26" viewBox="0 0 26 26" fill="none" xmlns="http://www.w3.org/2000/svg">
<g id="settings" clip-path="url(#clip0_11_267)">
<path id="Vector" d="M21.0491 14.0617C21.0924 13.715 21.1249 13.3683 21.1249 13C21.1249 12.6317 21.0924 12.285 21.0491 11.9383L23.335 10.1508C23.5408 9.98833 23.5949 9.69583 23.4649 9.4575L21.2983 5.70916C21.1683 5.47083 20.8758 5.38416 20.6374 5.47083L17.9399 6.55416C17.3766 6.12083 16.7699 5.76333 16.1091 5.4925L15.6974 2.62166C15.6649 2.36166 15.4374 2.16666 15.1666 2.16666H10.8333C10.5624 2.16666 10.3349 2.36166 10.3024 2.62166L9.89078 5.4925C9.22995 5.76333 8.62328 6.13166 8.05995 6.55416L5.36245 5.47083C5.11328 5.37333 4.83162 5.47083 4.70162 5.70916L2.53495 9.4575C2.39411 9.69583 2.45911 9.98833 2.66495 10.1508L4.95078 11.9383C4.90745 12.285 4.87495 12.6425 4.87495 13C4.87495 13.3575 4.90745 13.715 4.95078 14.0617L2.66495 15.8492C2.45911 16.0117 2.40495 16.3042 2.53495 16.5425L4.70162 20.2908C4.83162 20.5292 5.12411 20.6158 5.36245 20.5292L8.05995 19.4458C8.62328 19.8792 9.22995 20.2367 9.89078 20.5075L10.3024 23.3783C10.3349 23.6383 10.5624 23.8333 10.8333 23.8333H15.1666C15.4374 23.8333 15.6649 23.6383 15.6974 23.3783L16.1091 20.5075C16.7699 20.2367 17.3766 19.8683 17.9399 19.4458L20.6374 20.5292C20.8866 20.6267 21.1683 20.5292 21.2983 20.2908L23.4649 16.5425C23.5949 16.3042 23.5408 16.0117 23.335 15.8492L21.0491 14.0617V14.0617ZM12.9999 16.7917C10.9091 16.7917 9.20828 15.0908 9.20828 13C9.20828 10.9092 10.9091 9.20833 12.9999 9.20833C15.0908 9.20833 16.7916 10.9092 16.7916 13C16.7916 15.0908 15.0908 16.7917 12.9999 16.7917Z" fill="white"/>
</g>
<defs>
<clipPath id="clip0_11_267">
<rect width="26" height="26" fill="white"/>
</clipPath>
</defs>
</svg>
