<svg width="37" height="37" viewBox="0 0 37 37" fill="none" xmlns="http://www.w3.org/2000/svg">
<g id="verified_user" clip-path="url(#clip0_11_266)">
<path id="Vector" d="M17.2512 2.09667L6.45958 6.89125C5.34958 7.38459 4.625 8.49459 4.625 9.7125V16.9583C4.625 25.5146 10.545 33.5158 18.5 35.4583C26.455 33.5158 32.375 25.5146 32.375 16.9583V9.7125C32.375 8.49459 31.6504 7.38459 30.5404 6.89125L19.7488 2.09667C18.9625 1.74209 18.0375 1.74209 17.2512 2.09667V2.09667ZM14.3221 25.1138L10.3292 21.1208C9.72792 20.5196 9.72792 19.5483 10.3292 18.9471C10.9304 18.3458 11.9017 18.3458 12.5029 18.9471L15.4167 21.8454L24.4817 12.7804C25.0829 12.1792 26.0542 12.1792 26.6554 12.7804C27.2567 13.3817 27.2567 14.3529 26.6554 14.9542L16.4958 25.1138C15.91 25.715 14.9233 25.715 14.3221 25.1138Z" fill="white"/>
</g>
<defs>
<clipPath id="clip0_11_266">
<rect width="37" height="37" fill="white"/>
</clipPath>
</defs>
</svg>
